<svg width="16" height="24" viewBox="0 0 16 24" fill="none" xmlns="http://www.w3.org/2000/svg">
<path d="M4.5 16.8889V16.3889H4H0.5V10.7937C0.5 10.5235 0.730608 10.1453 1.40143 9.80458C2.04319 9.4786 2.96258 9.26196 4 9.26196H12C13.0374 9.26196 13.9568 9.4786 14.5986 9.80458C15.2694 10.1453 15.5 10.5235 15.5 10.7937V16.3889H12H11.5V16.8889V23.5001H4.5V16.8889Z" fill="white" stroke="black"/>
<path d="M12.5 3.80952C12.5 4.67221 12.0423 5.48858 11.2325 6.10555C10.4223 6.72283 9.28113 7.11905 8 7.11905C6.71887 7.11905 5.57767 6.72283 4.76749 6.10555C3.95772 5.48858 3.5 4.67221 3.5 3.80952C3.5 2.94684 3.95772 2.13047 4.76749 1.5135C5.57767 0.896221 6.71887 0.5 8 0.5C9.28113 0.5 10.4223 0.896221 11.2325 1.5135C12.0423 2.13047 12.5 2.94684 12.5 3.80952Z" fill="white" stroke="black"/>
</svg>
