<svg width="15" height="25" viewBox="0 0 15 25" fill="none" xmlns="http://www.w3.org/2000/svg">
<path d="M9.12358 12.7108L9.12342 12.7109L9.13063 12.7227C9.87207 13.9346 11.3005 14.761 12.9315 14.8931C12.615 15.0333 12.3571 15.3197 12.3571 15.7353V16.1176H12.2857V16.0088V15.6046L11.8905 15.5199C10.4268 15.2062 9.20391 14.459 8.4155 13.473L7.76128 12.6549L7.53663 13.6781L7.01163 16.0692L6.97832 16.221L7.03685 16.3649L9.14286 21.5419V24.5H8V21.4706V20.9706H7.5H5.35714H5.13622L4.98747 21.1339L2.05258 24.3566L1.20392 23.8324L3.04824 21.8073L3.81021 20.9706H2.67857H0.542433C0.610772 20.4783 0.761824 19.7797 0.996801 18.9555C1.3244 17.8064 1.80117 16.4613 2.39545 15.1816C2.99179 13.8974 3.69527 12.7036 4.46804 11.8388C5.24908 10.9647 6.03339 10.5 6.79286 10.5C7.35624 10.5 7.72512 10.6946 7.95328 10.8776C8.15364 11.0382 8.25309 11.1957 8.27734 11.2372L8.27715 11.2373L9.12358 12.7108ZM14.4286 15.7353C14.4286 15.555 14.3801 15.3991 14.2993 15.2689C14.431 15.4131 14.5 15.5814 14.5 15.7353V24.5H14.4286V15.7353Z" fill="white" stroke="black"/>
<path d="M4.81013 4.39501L4.94648 3.96324L4.53029 3.78487C3.92857 3.52699 3.5 2.92498 3.5 2.22222C3.5 1.27614 4.27614 0.5 5.22222 0.5C5.92498 0.5 6.52699 0.928571 6.78487 1.53029L6.96324 1.94647L7.39501 1.81012C7.78565 1.68676 8.15527 1.61111 8.55556 1.61111C10.7239 1.61111 12.5 3.38725 12.5 5.55556C12.5 7.72386 10.7239 9.5 8.55556 9.5C6.38725 9.5 4.61111 7.72386 4.61111 5.55556C4.61111 5.15527 4.68677 4.78565 4.81013 4.39501Z" fill="white" stroke="black"/>
</svg>
