<svg width="400" height="350" viewBox="0 0 400 350" fill="none" xmlns="http://www.w3.org/2000/svg">
<path d="M198.281 20.8086C190.859 21.6289 184.141 29.2168 184.141 39.1289C184.141 44.5977 186.25 49.3828 189.375 52.7324L193.203 56.6973L187.344 57.6543C183.281 58.3379 180.312 60.2519 177.734 63.3281C175.078 66.4726 173.125 70.6836 171.797 75.6738C169.297 84.6289 168.75 95.5664 168.672 105.273H182.344L183.594 120.244C188.906 120.039 194.375 119.902 199.922 119.902C205.781 119.902 211.484 120.039 217.031 120.312L218.203 105.273H231.172C231.172 95.498 231.016 84.3555 228.75 75.2637C227.5 70.3418 225.625 66.0625 223.047 62.9863C220.469 59.9102 217.266 58.0644 212.656 57.4492L206.719 56.6289L210.469 52.5273C213.516 49.2461 215.547 44.4609 215.547 39.1289C215.547 28.6016 208.047 20.8086 199.844 20.8086H198.281ZM48.3594 119.219C40.9375 120.039 34.2187 127.627 34.2187 137.539C34.2187 143.008 36.3281 147.793 39.4531 151.143L43.2813 155.107L37.4219 156.064C33.3594 156.748 30.3906 158.662 27.8125 161.738C25.1562 164.883 23.2031 169.121 21.875 174.111C19.375 183.066 18.8281 194.004 18.75 203.711H32.4219L36.0938 247.666C45.625 249.58 55.7812 249.443 64.9531 247.666L68.3125 203.711H81.25C81.25 193.936 81.0938 182.793 78.8281 173.701C77.6016 168.779 75.7266 164.473 73.1484 161.396C70.5781 158.32 67.375 156.475 62.7656 155.859L56.7969 155.039L60.5469 150.937C63.625 147.656 65.6562 142.871 65.6562 137.539C65.6562 127.012 58.125 119.219 49.9219 119.219H48.3594ZM348.359 119.219C340.938 120.039 334.219 127.627 334.219 137.539C334.219 143.008 336.328 147.793 339.453 151.143L343.281 155.107L337.422 156.064C333.359 156.748 330.391 158.662 327.812 161.738C325.156 164.883 323.203 169.121 321.875 174.111C319.375 183.066 318.828 194.004 318.75 203.711H332.422L336.094 247.666C345.625 249.58 355.781 249.443 364.922 247.666L368.281 203.711H381.25C381.25 193.936 381.094 182.793 378.828 173.701C377.578 168.779 375.703 164.473 373.125 161.396C370.547 158.32 367.344 156.475 362.734 155.859L356.797 155.039L360.547 150.937C363.594 147.656 365.625 142.871 365.625 137.539C365.625 127.012 358.125 119.219 349.922 119.219H348.359ZM199.922 132.207C171.25 132.207 145.312 135.83 127.109 141.436C118.047 144.238 110.937 147.588 106.562 150.801C102.109 154.014 100.703 156.68 100.703 158.867C100.703 161.055 102.109 163.721 106.562 166.934C110.937 170.146 118.047 173.428 127.109 176.299C145.312 181.904 171.25 185.527 199.922 185.527C228.594 185.527 254.531 181.904 272.734 176.299C281.797 173.428 288.906 170.146 293.281 166.934C297.734 163.721 299.141 161.055 299.141 158.867C299.141 156.68 297.734 154.014 293.281 150.801C288.906 147.588 281.797 144.238 272.734 141.436C254.531 135.83 228.594 132.207 199.922 132.207ZM117.891 186.348V217.656H131.953V190.449C128.672 189.629 125.469 188.809 122.422 187.852C120.859 187.373 119.375 186.895 117.891 186.348ZM281.953 186.348C280.469 186.895 278.984 187.373 277.422 187.852C274.375 188.809 271.172 189.629 267.891 190.449V217.656H281.953V186.348ZM198.281 199.336C190.859 200.156 184.141 207.744 184.141 217.656C184.141 223.125 186.25 227.91 189.375 231.26L193.203 235.225L187.344 236.182C183.281 236.865 180.312 238.779 177.734 241.855C175.078 245 173.125 249.238 171.797 254.228C169.297 263.184 168.75 274.121 168.672 283.828H182.344L186.016 327.783C195.547 329.697 205.703 329.561 214.844 327.783L218.203 283.828H231.172C231.172 274.053 231.016 262.91 228.75 253.818C227.5 248.896 225.625 244.59 223.047 241.514C220.469 238.437 217.266 236.592 212.656 235.977L206.719 235.156L210.469 231.055C213.516 227.773 215.547 222.988 215.547 217.656C215.547 207.129 208.047 199.336 199.844 199.336H198.281Z" fill="#8C5115"/>
</svg>
