<svg width="30" height="28" viewBox="0 0 30 28" fill="none" xmlns="http://www.w3.org/2000/svg">
<g clip-path="url(#clip0_422_1549)">
<path fill-rule="evenodd" clip-rule="evenodd" d="M20.0531 18.1616C19.664 18.343 19.2253 18.3473 18.8333 18.1736C18.4414 17.9998 18.1284 17.6622 17.9631 17.235C17.7979 16.8078 17.794 16.326 17.9522 15.8956C18.1105 15.4653 18.4179 15.1215 18.807 14.9401L25.1372 11.9878C25.2669 11.9273 25.4132 11.9259 25.5438 11.9838C25.6745 12.0418 25.7788 12.1543 25.8339 12.2967C25.889 12.4391 25.8903 12.5997 25.8375 12.7431C25.7848 12.8866 25.6823 13.0012 25.5526 13.0617L19.2224 16.0139C19.0927 16.0744 18.9902 16.189 18.9374 16.3324C18.8847 16.4759 18.886 16.6365 18.9411 16.7789C18.9962 16.9213 19.1005 17.0338 19.2311 17.0917C19.3618 17.1497 19.508 17.1482 19.6377 17.0877L19.8054 17.0095C19.9351 16.949 20.0814 16.9476 20.212 17.0055C20.3427 17.0635 20.447 17.176 20.5021 17.3184C20.5572 17.4608 20.5585 17.6214 20.5057 17.7648C20.453 17.9083 20.3505 18.0229 20.2208 18.0833L20.0531 18.1616Z" fill="black"/>
<path fill-rule="evenodd" clip-rule="evenodd" d="M9.69802 9.91634C8.64827 9.91634 7.80996 10.3013 7.23408 10.9179C6.96569 11.2045 6.75161 11.5466 6.60417 11.9244C6.45674 12.3022 6.37887 12.7084 6.37505 13.1194C6.36986 13.5305 6.44084 13.9385 6.58367 14.3186C6.72651 14.6986 6.93821 15.0428 7.20593 15.3303C7.76002 15.927 8.56433 16.3033 9.57583 16.3313L10.0938 16.3458V24.0721C10.0938 24.2278 10.2457 24.4839 10.598 24.4991C10.9518 24.5143 11.1388 24.2675 11.1547 24.1024L11.6743 18.6663H13.8258L14.3454 24.103C14.3613 24.2675 14.5483 24.5143 14.9021 24.4991C15.2544 24.4839 15.4063 24.2278 15.4063 24.0721V11.2277L16.1575 11.6028C16.7435 11.895 17.1244 12.2678 17.3762 12.6032C17.6524 12.9724 17.9149 13.4776 17.9834 14.0329L17.9845 14.0446L17.9855 14.0539C18.0131 14.3526 18.2724 14.6104 18.605 14.5807C18.9237 14.5527 19.1506 14.2505 19.1272 13.9513C19.1037 13.7229 19.0566 13.4983 18.9869 13.2816C18.8334 12.7763 18.596 12.3066 18.2867 11.8962C17.5122 10.8625 16.0943 9.91634 13.5873 9.91634H9.69802ZM6.49246 10.0826C7.28933 9.22976 8.40496 8.74967 9.69802 8.74967H13.5868C16.3626 8.74967 18.1013 9.81251 19.1075 11.1548C19.4999 11.676 19.801 12.2725 19.9958 12.9141C20.0808 13.1964 20.1573 13.5114 20.1849 13.8463V13.8486C20.2662 14.856 19.5384 15.6686 18.69 15.7438C17.8208 15.8203 17.024 15.1459 16.9294 14.1828C16.8943 13.9122 16.752 13.6071 16.5554 13.3446C16.5275 13.3077 16.4987 13.2717 16.4688 13.2367V24.0721C16.4688 24.9967 15.7272 25.6308 14.9441 25.6646C14.1632 25.6984 13.3759 25.1361 13.2887 24.2238L12.8691 19.833H12.6311L12.2114 24.2243C12.1242 25.1361 11.3369 25.6984 10.556 25.6652C9.77293 25.6313 9.0313 24.9967 9.0313 24.0721V17.4571C8.00865 17.3229 7.12412 16.8767 6.46165 16.1621C6.09203 15.7648 5.79963 15.2894 5.60213 14.7645C5.40462 14.2396 5.30611 13.6762 5.31255 13.1083C5.31772 12.5436 5.42459 11.9856 5.627 11.4664C5.82941 10.9472 6.12336 10.4771 6.49193 10.0832M10.0938 11.0579V15.1897L9.53918 15.1628C8.83474 15.1278 8.35077 14.8653 8.0384 14.5288C7.87075 14.3459 7.73849 14.1278 7.64957 13.8874C7.56065 13.647 7.5169 13.3893 7.52096 13.1299C7.52209 12.8674 7.57066 12.6078 7.66386 12.3661C7.75706 12.1244 7.89303 11.9053 8.0639 11.7218C8.38105 11.3828 8.86024 11.1227 9.53705 11.0871L10.0938 11.0579ZM9.0313 12.3885C8.89812 12.4527 8.78486 12.5581 8.70533 12.6919C8.6258 12.8256 8.58346 12.9819 8.58346 13.1416C8.58133 13.3656 8.65624 13.5604 8.78268 13.6958C8.83262 13.75 8.91124 13.8165 9.0313 13.8731V12.3885ZM12.7501 3.49967C12.3274 3.49967 11.922 3.68405 11.6231 4.01224C11.3242 4.34043 11.1563 4.78555 11.1563 5.24967C11.1563 5.7138 11.3242 6.15892 11.6231 6.48711C11.922 6.8153 12.3274 6.99967 12.7501 6.99967C13.1727 6.99967 13.5781 6.8153 13.877 6.48711C14.1759 6.15892 14.3438 5.7138 14.3438 5.24967C14.3438 4.78555 14.1759 4.34043 13.877 4.01224C13.5781 3.68405 13.1727 3.49967 12.7501 3.49967ZM10.0938 5.24967C10.0938 4.47613 10.3737 3.73426 10.8718 3.18728C11.3699 2.6403 12.0456 2.33301 12.7501 2.33301C13.4545 2.33301 14.1302 2.6403 14.6283 3.18728C15.1264 3.73426 15.4063 4.47613 15.4063 5.24967C15.4063 6.02322 15.1264 6.76509 14.6283 7.31207C14.1302 7.85905 13.4545 8.16634 12.7501 8.16634C12.0456 8.16634 11.3699 7.85905 10.8718 7.31207C10.3737 6.76509 10.0938 6.02322 10.0938 5.24967Z" fill="black"/>
<line y1="-0.2" x2="1.07199" y2="-0.2" transform="matrix(-0.667252 0.744832 -0.679375 -0.733791 25.2953 14.4268)" stroke="black" stroke-width="0.4"/>
<line y1="-0.2" x2="1.07199" y2="-0.2" transform="matrix(-0.667252 0.744832 -0.679375 -0.733791 25.1953 14)" stroke="black" stroke-width="0.4"/>
<line y1="-0.2" x2="1.08524" y2="-0.2" transform="matrix(0.562523 0.826782 -0.773143 0.634232 24.3696 10.6396)" stroke="black" stroke-width="0.4"/>
<line y1="-0.2" x2="1.08524" y2="-0.2" transform="matrix(0.562523 0.826782 -0.773143 0.634232 23.97 10.6836)" stroke="black" stroke-width="0.4"/>
</g>
<rect x="26" y="4.9209" width="3.5" height="19.1404" stroke="black"/>
<defs>
<clipPath id="clip0_422_1549">
<rect width="25.5" height="28" fill="white"/>
</clipPath>
</defs>
</svg>
