<svg width="54" height="56" viewBox="0 0 54 56" fill="none" xmlns="http://www.w3.org/2000/svg">
<path fill-rule="evenodd" clip-rule="evenodd" d="M3.375 28C3.375 34.4978 5.86406 40.7295 10.2946 45.3241C14.7251 49.9188 20.7343 52.5 27 52.5C33.2657 52.5 39.2749 49.9188 43.7054 45.3241C48.1359 40.7295 50.625 34.4978 50.625 28C50.625 21.5022 48.1359 15.2705 43.7054 10.6759C39.2749 6.08124 33.2657 3.5 27 3.5C20.7343 3.5 14.7251 6.08124 10.2946 10.6759C5.86406 15.2705 3.375 21.5022 3.375 28ZM54 28C54 35.4261 51.1554 42.548 46.0919 47.799C41.0284 53.05 34.1608 56 27 56C19.8392 56 12.9716 53.05 7.90812 47.799C2.84463 42.548 0 35.4261 0 28C0 20.5739 2.84463 13.452 7.90812 8.20101C12.9716 2.94999 19.8392 0 27 0C34.1608 0 41.0284 2.94999 46.0919 8.20101C51.1554 13.452 54 20.5739 54 28ZM38.8125 26.25C39.2601 26.25 39.6893 26.4344 40.0057 26.7626C40.3222 27.0908 40.5 27.5359 40.5 28C40.5 28.4641 40.3222 28.9092 40.0057 29.2374C39.6893 29.5656 39.2601 29.75 38.8125 29.75H19.2611L26.5073 37.261C26.6641 37.4237 26.7886 37.6169 26.8735 37.8295C26.9584 38.042 27.0021 38.2699 27.0021 38.5C27.0021 38.7301 26.9584 38.958 26.8735 39.1705C26.7886 39.3831 26.6641 39.5763 26.5073 39.739C26.3504 39.9017 26.1641 40.0308 25.9591 40.1188C25.7541 40.2069 25.5344 40.2522 25.3125 40.2522C25.0906 40.2522 24.8709 40.2069 24.6659 40.1188C24.4609 40.0308 24.2746 39.9017 24.1177 39.739L13.9927 29.239C13.8356 29.0764 13.7109 28.8833 13.6258 28.6707C13.5408 28.4581 13.497 28.2302 13.497 28C13.497 27.7698 13.5408 27.5419 13.6258 27.3293C13.7109 27.1167 13.8356 26.9236 13.9927 26.761L24.1177 16.261C24.4346 15.9324 24.8644 15.7478 25.3125 15.7478C25.7606 15.7478 26.1904 15.9324 26.5073 16.261C26.8241 16.5896 27.0021 17.0353 27.0021 17.5C27.0021 17.9647 26.8241 18.4104 26.5073 18.739L19.2611 26.25H38.8125Z" fill="#4F7E68"/>
</svg>
