<svg width="150" height="124" viewBox="0 0 150 124" fill="none" xmlns="http://www.w3.org/2000/svg">
<path fill-rule="evenodd" clip-rule="evenodd" d="M60.3002 62.2002C60.3002 72.7157 48.3014 81.2402 33.5002 81.2402C28.5032 81.2402 23.8256 80.2686 19.8214 78.5768L6.7002 81.2402L11.1835 72.7464C8.35108 69.7272 6.7002 66.1007 6.7002 62.2002C6.7002 51.6847 18.699 43.1602 33.5002 43.1602C48.3014 43.1602 60.3002 51.6847 60.3002 62.2002ZM23.4502 59.4802H16.7502V64.9202H23.4502V59.4802ZM50.2502 59.4802H43.5502V64.9202H50.2502V59.4802ZM30.1502 59.4802H36.8502V64.9202H30.1502V59.4802Z" fill="#111827"/>
<path d="M85.0011 53.1102V55.8302C86.2811 53.5902 88.8011 52.7102 91.4011 52.7102C96.9211 52.7102 99.9211 56.2702 99.9211 62.0302V65.9102C99.9211 71.9502 96.4011 75.3102 91.1611 75.3102C87.9211 75.3102 86.0011 73.8702 85.1211 72.5902V83.5502H81.2411V53.1102H85.0011ZM85.0811 61.6702V67.1902C85.0811 69.4702 87.4811 71.9102 90.8411 71.9102C94.1211 71.9102 96.0811 69.4702 96.0811 65.3502V62.6702C96.0811 58.5102 94.0811 56.1102 90.8411 56.1102C87.6811 56.1102 85.0811 58.2702 85.0811 61.6702ZM110.954 75.3102C106.554 75.3102 103.754 72.9902 103.754 69.1502V68.0702C103.754 64.3502 106.114 61.7502 111.714 61.7502H117.274V60.4702C117.274 57.5502 115.954 56.1502 112.754 56.1502C110.194 56.1502 108.514 57.0302 106.474 58.3502L104.554 55.4702C106.674 53.9902 109.274 52.7102 112.794 52.7102C117.674 52.7102 121.114 55.2702 121.114 59.6702V74.9902H117.394V72.3502H117.354C116.954 73.1502 116.154 73.8302 115.314 74.3102C114.154 74.9502 112.874 75.3102 110.954 75.3102ZM117.274 67.1902V65.0302H111.794C108.754 65.0302 107.554 66.2702 107.554 68.3502V68.9102C107.554 71.0302 109.274 71.9502 111.354 71.9502C113.274 71.9502 114.634 71.5102 115.794 70.5902C116.834 69.7902 117.274 68.8302 117.274 67.1902ZM134.344 70.5902H134.504L140.264 53.1102H144.344L132.984 84.0302L129.464 82.7902L132.304 75.3102L124.344 53.1102H128.544L134.344 70.5902Z" fill="black"/>
</svg>
