<svg width="100" height="100" viewBox="0 0 100 100" fill="none" xmlns="http://www.w3.org/2000/svg">
<path d="M75 91.6667H25C22.7083 91.6667 20.7472 90.8514 19.1167 89.2209C17.4861 87.5903 16.6694 85.6278 16.6667 83.3334V16.6667C16.6667 14.375 17.4833 12.4139 19.1167 10.7834C20.75 9.15282 22.7111 8.33615 25 8.33337H75C77.2917 8.33337 79.2542 9.15004 80.8875 10.7834C82.5208 12.4167 83.3361 14.3778 83.3333 16.6667V83.3334C83.3333 85.625 82.518 87.5875 80.8875 89.2209C79.2569 90.8542 77.2944 91.6695 75 91.6667ZM25 83.3334H75V16.6667H25V83.3334Z" fill="black"/>
<g clip-path="url(#clip0_327_207)">
<path d="M44.6489 54.0406C45.6362 53.161 46.9211 52.6898 48.243 52.7226C49.5649 52.7555 50.8249 53.2899 51.7673 54.2175L52.0023 54.4657L58.3833 61.6297L66.1536 56.3993C67.7671 55.2628 69.7315 54.7358 71.6972 54.9121C73.6629 55.0884 75.5021 55.9566 76.8876 57.3622L77.1752 57.6695L77.6117 58.1595C79.2583 60.0029 80.4728 62.1903 81.1667 64.5626C81.3213 65.0934 81.2587 65.6639 80.9927 66.1485C80.7267 66.6332 80.2791 66.9924 79.7483 67.147C79.2174 67.3016 78.647 67.239 78.1623 66.973C77.6776 66.707 77.3185 66.2594 77.1638 65.7286C76.705 64.1563 75.9398 62.6903 74.9121 61.4151L74.5003 60.9309L74.0638 60.4408C73.42 59.7178 72.5445 59.2416 71.5877 59.0939C70.6308 58.9462 69.6525 59.1363 68.8206 59.6316L68.4985 59.8432L60.7696 65.045C59.9801 65.5969 59.0237 65.8581 58.0632 65.7843C57.1027 65.7105 56.1975 65.3062 55.5015 64.6401L55.2719 64.401L48.8909 57.237C48.7181 57.0423 48.4787 56.9194 48.2198 56.8924C47.9609 56.8654 47.7013 56.9363 47.492 57.0912C47.2828 57.246 47.1391 57.4736 47.0893 57.7291C47.0395 57.9846 47.0872 58.2495 47.2229 58.4716L47.3352 58.6227L59.1133 71.8462C59.4 72.1685 59.5795 72.5718 59.6271 73.0005C59.6748 73.4291 59.5882 73.862 59.3794 74.2394C59.1705 74.6168 58.8497 74.92 58.4612 75.1073C58.0726 75.2946 57.6355 75.3567 57.2102 75.285L56.1298 75.1118L55.1679 74.981C53.3567 74.7612 52.1972 74.7812 51.3852 74.994C50.896 75.1093 50.4533 75.3703 50.1157 75.7425L49.924 75.969L60.7603 80.2918C61.2524 80.4896 61.6506 80.8677 61.8735 81.3489C62.0965 81.8302 62.1276 82.3783 61.9603 82.8817C61.7931 83.385 61.4402 83.8056 60.9736 84.0577C60.5069 84.3098 59.9617 84.3745 59.4491 84.2385L59.2175 84.1602L47.2027 79.3693C45.645 78.7481 44.726 76.88 45.5547 75.1793C46.5856 73.0698 48.0178 71.5737 50.324 70.9647C50.8259 70.8329 51.3577 70.7471 51.9151 70.7026L52.4851 70.6691L44.2238 61.394C43.305 60.3625 42.8337 59.0083 42.9134 57.6293C42.9931 56.2503 43.6174 54.9594 44.6489 54.0406ZM39.1062 47.8178C40.6694 46.425 42.5343 45.4136 44.5543 44.863C46.5743 44.3125 48.6945 44.2379 50.7482 44.645C52.8019 45.0522 54.7333 45.93 56.3905 47.2095C58.0478 48.489 59.3857 50.1354 60.2993 52.0192C60.4266 52.2661 60.5033 52.536 60.5247 52.8129C60.5462 53.0899 60.5121 53.3683 60.4243 53.6319C60.3366 53.8955 60.197 54.1388 60.0139 54.3477C59.8307 54.5565 59.6076 54.7266 59.3577 54.8479C59.1079 54.9693 58.8363 55.0394 58.5589 55.0543C58.2815 55.0691 58.0039 55.0283 57.7426 54.9343C57.4812 54.8403 57.2412 54.695 57.0368 54.5069C56.8324 54.3187 56.6677 54.0917 56.5524 53.839C55.8858 52.4658 54.894 51.2762 53.6632 50.3734C52.4323 49.4707 50.9997 48.8821 49.4897 48.6589C47.9797 48.4356 46.4381 48.5845 44.9987 49.0924C43.5593 49.6004 42.2657 50.4521 41.2303 51.5737C40.1948 52.6952 39.4489 54.0526 39.0573 55.5279C38.6657 57.0032 38.6403 58.5518 38.9832 60.0392C39.3261 61.5266 40.027 62.9078 41.0251 64.0627C42.0231 65.2176 43.288 66.1114 44.7099 66.6664C45.2251 66.8668 45.6395 67.2637 45.8621 67.7697C46.0847 68.2757 46.0971 68.8494 45.8967 69.3645C45.6963 69.8797 45.2995 70.2942 44.7935 70.5168C44.2875 70.7393 43.7138 70.7518 43.1986 70.5514C41.0384 69.7105 39.1303 68.3292 37.6568 66.5398C36.1833 64.7503 35.1939 62.6125 34.7832 60.3311C34.3725 58.0498 34.5543 55.7012 35.3113 53.5102C36.0682 51.3192 37.3749 49.3592 39.1062 47.8178Z" fill="black"/>
</g>
<path d="M31.3976 28.88H38.8216V30.576H33.4296V33.68H38.4856V35.344H33.4296V38.72H38.9336V40.416H31.3976V28.88ZM49.0839 28.88V30.432L42.7639 38.656H49.3879V40.416H40.2359V38.736L46.4759 30.64H40.6199V28.88H49.0839Z" fill="black"/>
<path d="M31.3976 28.88V28.63H31.1476V28.88H31.3976ZM38.8216 28.88H39.0716V28.63H38.8216V28.88ZM38.8216 30.576V30.826H39.0716V30.576H38.8216ZM33.4296 30.576V30.326H33.1796V30.576H33.4296ZM33.4296 33.68H33.1796V33.93H33.4296V33.68ZM38.4856 33.68H38.7356V33.43H38.4856V33.68ZM38.4856 35.344V35.594H38.7356V35.344H38.4856ZM33.4296 35.344V35.094H33.1796V35.344H33.4296ZM33.4296 38.72H33.1796V38.97H33.4296V38.72ZM38.9336 38.72H39.1836V38.47H38.9336V38.72ZM38.9336 40.416V40.666H39.1836V40.416H38.9336ZM31.3976 40.416H31.1476V40.666H31.3976V40.416ZM31.3976 29.13H38.8216V28.63H31.3976V29.13ZM38.5716 28.88V30.576H39.0716V28.88H38.5716ZM38.8216 30.326H33.4296V30.826H38.8216V30.326ZM33.1796 30.576V33.68H33.6796V30.576H33.1796ZM33.4296 33.93H38.4856V33.43H33.4296V33.93ZM38.2356 33.68V35.344H38.7356V33.68H38.2356ZM38.4856 35.094H33.4296V35.594H38.4856V35.094ZM33.1796 35.344V38.72H33.6796V35.344H33.1796ZM33.4296 38.97H38.9336V38.47H33.4296V38.97ZM38.6836 38.72V40.416H39.1836V38.72H38.6836ZM38.9336 40.166H31.3976V40.666H38.9336V40.166ZM31.6476 40.416V28.88H31.1476V40.416H31.6476ZM49.0839 28.88H49.3339V28.63H49.0839V28.88ZM49.0839 30.432L49.2822 30.5843L49.3339 30.517V30.432H49.0839ZM42.7639 38.656L42.5657 38.5037L42.2565 38.906H42.7639V38.656ZM49.3879 38.656H49.6379V38.406H49.3879V38.656ZM49.3879 40.416V40.666H49.6379V40.416H49.3879ZM40.2359 40.416H39.9859V40.666H40.2359V40.416ZM40.2359 38.736L40.0379 38.5834L39.9859 38.6508V38.736H40.2359ZM46.4759 30.64L46.6739 30.7926L46.9843 30.39H46.4759V30.64ZM40.6199 30.64H40.3699V30.89H40.6199V30.64ZM40.6199 28.88V28.63H40.3699V28.88H40.6199ZM48.8339 28.88V30.432H49.3339V28.88H48.8339ZM48.8857 30.2797L42.5657 38.5037L42.9622 38.8083L49.2822 30.5843L48.8857 30.2797ZM42.7639 38.906H49.3879V38.406H42.7639V38.906ZM49.1379 38.656V40.416H49.6379V38.656H49.1379ZM49.3879 40.166H40.2359V40.666H49.3879V40.166ZM40.4859 40.416V38.736H39.9859V40.416H40.4859ZM40.4339 38.8886L46.6739 30.7926L46.2779 30.4874L40.0379 38.5834L40.4339 38.8886ZM46.4759 30.39H40.6199V30.89H46.4759V30.39ZM40.8699 30.64V28.88H40.3699V30.64H40.8699ZM40.6199 29.13H49.0839V28.63H40.6199V29.13Z" fill="black"/>
<defs>
<clipPath id="clip0_327_207">
<rect width="50" height="50" fill="white" transform="translate(20 59.256) rotate(-41.6915)"/>
</clipPath>
</defs>
</svg>
