<svg width="400" height="400" viewBox="0 0 400 400" fill="none" xmlns="http://www.w3.org/2000/svg">
<path d="M98.0625 124.787L123.5 341.7C123.5 353.913 157.75 363.825 200 363.825C242.25 363.825 276.5 353.913 276.5 341.7L306.25 123.125C275.562 135.925 221.1 137.3 200.025 137.3C179.9 137.3 129.338 136.05 98.0875 124.8L98.0625 124.787ZM301.625 71.9125L296.925 50.9125C296.925 42.7875 253.525 36.1875 200 36.1875C146.475 36.1875 103.075 42.8125 103.075 50.9375L98.375 71.9C89.45 75.45 84.375 79.5 84.375 83.8125V99.875C84.375 113.625 136.15 124.8 200 124.8C263.85 124.8 315.625 113.625 315.625 99.8625V83.8C315.625 79.4875 310.55 75.425 301.625 71.8875V71.9125Z" fill="#182723"/>
</svg>
